<svg width="50" height="50" viewBox="0 0 50 50" fill="none" xmlns="http://www.w3.org/2000/svg">
<path d="M36.3687 36.9318C36.3687 43.8942 30.9754 49.5 24.3687 49.5C17.7619 49.5 12.3687 43.8942 12.3687 36.9318C12.3687 29.9694 17.7619 24.3636 24.3687 24.3636C30.9754 24.3636 36.3687 29.9694 36.3687 36.9318Z" fill="white" stroke="black"/>
<path fill-rule="evenodd" clip-rule="evenodd" d="M18.4152 26.1498C18.0123 25.0209 16.8743 24.0589 15.4199 23.7575C13.4311 23.3454 11.6038 24.3248 11.3386 25.945C11.0793 27.5286 12.4084 29.1384 14.3258 29.595C15.4352 28.1394 16.8342 26.965 18.4152 26.1498Z" fill="black"/>
<path fill-rule="evenodd" clip-rule="evenodd" d="M35.3141 31.551C36.2669 30.9758 36.991 29.597 37.0964 27.9375C37.2406 25.6683 36.1734 23.7335 34.7128 23.616C33.285 23.5012 32.0098 25.1652 31.8184 27.3595C33.227 28.439 34.4191 29.8734 35.3141 31.551Z" fill="black"/>
<path fill-rule="evenodd" clip-rule="evenodd" d="M24.2424 35.2273C24.2424 36.0337 23.7243 36.728 22.9796 37.0401L22.9798 37.0739C22.9798 38.8782 21.6231 40.3409 19.9495 40.3409C18.2759 40.3409 16.9192 38.8782 16.9192 37.0739C16.9192 35.2695 18.2759 33.8068 19.9495 33.8068C20.1482 33.8068 20.3424 33.8274 20.5304 33.8668C20.922 33.4802 21.4785 33.2386 22.0959 33.2386C23.2814 33.2386 24.2424 34.129 24.2424 35.2273ZM22.4748 36.0795C22.7537 36.0795 22.9798 35.698 22.9798 35.2273C22.9798 34.7566 22.7537 34.375 22.4748 34.375C22.1958 34.375 21.9697 34.7566 21.9697 35.2273C21.9697 35.698 22.1958 36.0795 22.4748 36.0795Z" fill="black"/>
<path fill-rule="evenodd" clip-rule="evenodd" d="M27.2504 33.3005C27.9415 33.0861 28.6694 33.444 29.128 34.1408L29.1569 34.1316C30.7031 33.6519 32.3047 34.6836 32.7344 36.436C33.164 38.1884 32.259 39.998 30.7128 40.4777C29.1667 40.9575 27.565 39.9258 27.1354 38.1734C27.0844 37.9653 27.0522 37.7565 27.0376 37.5492C26.6058 37.2419 26.2559 36.7234 26.0974 36.0769C25.7931 34.8356 26.3093 33.5926 27.2504 33.3005ZM27.7617 36.0089C28.0406 36.0089 28.2667 35.6274 28.2667 35.1567C28.2667 34.686 28.0406 34.3044 27.7617 34.3044C27.4827 34.3044 27.2566 34.686 27.2566 35.1567C27.2566 35.6274 27.4827 36.0089 27.7617 36.0089Z" fill="black"/>
<path fill-rule="evenodd" clip-rule="evenodd" d="M17.573 39.1845C17.573 39.1845 17.573 39.1845 17.573 39.1845C17.0632 39.9311 17.188 41.0012 17.8516 41.5746C18.5152 42.1481 19.4664 42.0078 19.9761 41.2612C20.1737 40.9719 20.276 40.6339 20.2885 40.2951C19.414 40.3005 18.4338 39.9284 17.573 39.1845C17.573 39.1845 17.573 39.1845 17.573 39.1845Z" fill="#F7B5B5"/>
<path fill-rule="evenodd" clip-rule="evenodd" d="M29.5147 40.4362C29.6363 41.3676 30.406 42.0118 31.2339 41.875C32.0618 41.7383 32.6344 40.8724 32.5129 39.941C32.4658 39.58 32.3213 39.2622 32.1139 39.0162C31.5085 39.7262 30.5887 40.2588 29.5148 40.4362C29.5148 40.4362 29.5147 40.4362 29.5147 40.4362Z" fill="#F7B5B5"/>
<ellipse cx="25" cy="41.6193" rx="1.76768" ry="0.994318" fill="black"/>
<line x1="24.0051" y1="44.6023" x2="24.0051" y2="42.3295" stroke="black" stroke-width="3"/>
<path fill-rule="evenodd" clip-rule="evenodd" d="M23.2419 43.2727C23.2355 43.3215 23.2323 43.3709 23.2323 43.4209C23.2323 44.2303 24.0802 44.8864 25.1262 44.8864C26.1722 44.8864 27.0202 44.2303 27.0202 43.4209C27.0202 43.3395 27.0116 43.2596 26.9951 43.1818C26.8502 43.2306 26.6979 43.2744 26.5392 43.3125C26.5442 43.3482 26.5467 43.3843 26.5467 43.4209C26.5467 43.9991 25.9108 44.4677 25.1263 44.4677C24.3418 44.4677 23.7058 43.9991 23.7058 43.4209C23.7058 43.4066 23.7062 43.3923 23.707 43.3782C23.5463 43.3484 23.3909 43.3131 23.2419 43.2727Z" fill="black"/>
<path fill-rule="evenodd" clip-rule="evenodd" d="M50 24.7159L25 0L0 24.7159H8.55554L25 12.5227L41.4445 24.7159H50Z" fill="#7C6F52"/>
</svg>
