<svg width="19" height="17" viewBox="0 0 19 17" fill="none" xmlns="http://www.w3.org/2000/svg">
<path d="M5.86462 16.8333H5.78128C4.10249 16.8186 2.44798 16.4307 0.937534 15.6978C0.659694 15.5673 0.430928 15.3513 0.284726 15.0814C0.138523 14.8115 0.0825616 14.5018 0.125034 14.1978C0.171226 13.8918 0.312938 13.6081 0.529937 13.3874C0.746936 13.1666 1.02813 13.0201 1.33337 12.9687C2.26942 12.8438 3.16992 12.5283 3.9792 12.0416C2.57416 10.9431 1.49248 9.48489 0.848804 7.82159C0.205124 6.1583 0.023421 4.35184 0.322951 2.59367C0.363563 2.31518 0.48333 2.05423 0.668001 1.84186C0.852671 1.62949 1.09447 1.47464 1.36462 1.39575C1.62744 1.31321 1.90873 1.30968 2.17354 1.38561C2.43836 1.46154 2.67504 1.61357 2.8542 1.82284C3.46254 2.62053 4.22701 3.28592 5.10098 3.77842C5.97495 4.27093 6.94009 4.58022 7.93753 4.68742C7.98518 3.46018 8.51257 2.30067 9.40628 1.45825C9.85254 1.03093 10.3794 0.696702 10.9561 0.475033C11.5328 0.253363 12.1479 0.148688 12.7655 0.167109C13.383 0.18553 13.9908 0.326677 14.5533 0.582326C15.1157 0.837976 15.6217 1.20301 16.0417 1.65617C16.1511 1.75291 16.2871 1.81456 16.4319 1.83313C16.5768 1.8517 16.7239 1.82634 16.8542 1.76034C17.1026 1.6432 17.3791 1.5991 17.6516 1.6332C17.9241 1.66729 18.1813 1.77816 18.3931 1.95288C18.6049 2.12761 18.7627 2.35897 18.8481 2.61998C18.9334 2.88099 18.9428 3.16088 18.875 3.427C18.6348 4.41671 18.1796 5.34137 17.5417 6.13534C17.4011 9.09862 16.0947 11.8861 13.9073 13.8901C11.7198 15.8941 8.82885 16.9521 5.86462 16.8333ZM5.86462 14.7499H5.94795C7.15906 14.7916 8.3664 14.5924 9.49996 14.164C10.6335 13.7355 11.6708 13.0863 12.5515 12.254C13.4323 11.4216 14.1391 10.4228 14.6309 9.31522C15.1228 8.20769 15.3898 7.01353 15.4167 5.802C15.4339 5.46997 15.5708 5.15542 15.8021 4.91659C16.0562 4.59497 16.2729 4.2455 16.448 3.87492C16.0727 3.87563 15.7015 3.79714 15.3587 3.64456C15.0158 3.49199 14.709 3.26877 14.4584 2.9895C14.2173 2.7505 13.931 2.56198 13.6162 2.43499C13.3014 2.30799 12.9644 2.24508 12.625 2.24992C12.2822 2.24106 11.941 2.29999 11.6211 2.42333C11.3011 2.54667 11.0086 2.732 10.7605 2.96867C10.4256 3.28638 10.1801 3.68645 10.0485 4.12884C9.9169 4.57124 9.90377 5.04044 10.0105 5.4895L10.2813 6.677L9.06253 6.76034C7.81367 6.86217 6.5576 6.69134 5.3813 6.25967C4.205 5.828 3.13658 5.14581 2.25003 4.26034C2.21201 5.63158 2.55504 6.98651 3.24097 8.17447C3.9269 9.36244 4.92886 10.3369 6.13545 10.9895L7.12503 11.552L6.46878 12.4895C5.75909 13.4203 4.78668 14.1169 3.67712 14.4895C4.3889 14.6679 5.12042 14.7554 5.8542 14.7499H5.86462Z" fill="#231F20"/>
</svg>
