<svg width="21" height="25" viewBox="0 0 21 25" fill="none" xmlns="http://www.w3.org/2000/svg">
<path d="M11.3433 22.9167H7.85305C7.62163 22.9167 7.39969 22.807 7.23606 22.6116C7.07242 22.4163 6.98049 22.1513 6.98049 21.8751V15.4167H5.23536C5.00394 15.4167 4.782 15.307 4.61836 15.1116C4.45472 14.9163 4.36279 14.6513 4.36279 14.3751V10.6251C4.36279 10.3488 4.45472 10.0839 4.61836 9.8885C4.782 9.69315 5.00394 9.58341 5.23536 9.58341H6.98049V7.81257C7.04165 6.22544 7.62673 4.73179 8.6078 3.65819C9.58887 2.58459 10.8861 2.0184 12.2159 2.08341H14.8336C15.065 2.08341 15.2869 2.19315 15.4506 2.38851C15.6142 2.58386 15.7061 2.84881 15.7061 3.12507V6.87507C15.7061 7.15134 15.6142 7.41629 15.4506 7.61164C15.2869 7.80699 15.065 7.91674 14.8336 7.91674H12.2159V9.58341H14.8336C14.9683 9.58219 15.1014 9.61823 15.2225 9.68872C15.3437 9.7592 15.4494 9.8622 15.5316 9.98966C15.6129 10.119 15.6678 10.2692 15.6921 10.4283C15.7163 10.5874 15.7092 10.7511 15.6712 10.9063L14.7987 14.6563C14.7459 14.8816 14.6311 15.0792 14.4728 15.2171C14.3145 15.3551 14.122 15.4254 13.9261 15.4167H12.2159V21.8751C12.2159 22.1513 12.1239 22.4163 11.9603 22.6116C11.7967 22.807 11.5747 22.9167 11.3433 22.9167ZM8.72562 20.8334H10.4707V14.3751C10.4707 14.0988 10.5627 13.8339 10.7263 13.6385C10.89 13.4432 11.1119 13.3334 11.3433 13.3334H13.2979L13.6818 11.6667H11.3433C11.1119 11.6667 10.89 11.557 10.7263 11.3616C10.5627 11.1663 10.4707 10.9013 10.4707 10.6251V7.81257C10.4932 7.27829 10.6869 6.77477 11.0117 6.40632C11.3366 6.03788 11.7678 5.83274 12.2159 5.83341H13.961V4.16674H12.2159C11.3493 4.10371 10.4968 4.45115 9.84336 5.13368C9.18995 5.81622 8.78832 6.77879 8.72562 7.81257V10.6251C8.72562 10.9013 8.63369 11.1663 8.47005 11.3616C8.30641 11.557 8.08447 11.6667 7.85305 11.6667H6.10792V13.3334H7.85305C8.08447 13.3334 8.30641 13.4432 8.47005 13.6385C8.63369 13.8339 8.72562 14.0988 8.72562 14.3751V20.8334Z" fill="#231F20"/>
</svg>
