<svg width="44" height="49" viewBox="0 0 44 49" fill="none" xmlns="http://www.w3.org/2000/svg">
<path fill-rule="evenodd" clip-rule="evenodd" d="M37.5577 28.8779C34.7651 27.7994 31.8661 27.043 28.9182 26.5541H28.7859C32.2371 24.2274 34.512 20.2816 34.512 15.818V15.1853C33.793 15.6454 32.8727 16.2494 31.5814 16.6549C31.1758 21.803 26.8331 25.884 21.57 25.884C16.4824 25.884 12.2518 22.0905 11.6191 17.1697C11.5328 16.7384 11.504 16.2811 11.504 15.818V14.265C11.5385 14.2621 11.5615 14.2535 11.5961 14.2477C11.8635 14.2017 12.1022 14.1413 12.3438 14.078C12.5509 14.0263 12.7551 13.9716 12.9392 13.9083C13.1405 13.8393 13.3332 13.7703 13.5143 13.6898C13.7214 13.6006 13.9112 13.5086 14.101 13.4108C14.2305 13.3389 14.3656 13.2756 14.4864 13.2037C14.6638 13.0986 14.8393 12.9903 15.0127 12.8787C15.099 12.8212 15.1997 12.7637 15.2802 12.7119C15.4039 12.6314 15.5247 12.5595 15.6455 12.4847C16.5226 11.9354 17.3596 11.5069 18.9183 11.504H18.9241C20.2787 11.504 21.0869 11.8117 21.8432 12.2431C22.0934 12.3869 22.3408 12.548 22.6025 12.7148C23.4969 13.2958 24.4863 13.9256 26.0077 14.2161C26.025 14.219 26.0365 14.2276 26.0537 14.2304C26.5714 14.3254 27.1523 14.38 27.8109 14.38C27.8224 14.38 27.8311 14.3771 27.8426 14.3771C30.4741 14.3714 31.846 13.4913 33.051 12.7119L34.4718 11.8347V11.8319L34.4861 11.8204L34.3855 11.2768L34.3251 10.8828C34.1899 10.0056 33.9368 9.16582 33.6319 8.34905C33.0021 6.64934 32.0387 5.09052 30.7157 3.77044C30.0283 3.07734 29.2489 2.47337 28.4437 1.98445C26.4017 0.693146 24.0146 0 21.57 0C15.9618 0 11.1589 3.59501 9.37578 8.62801C8.88686 9.97972 8.62801 11.4177 8.62801 12.942V15.818C8.62801 16.3069 8.65678 16.7958 8.71719 17.256C9.1457 21.1358 11.3113 24.4662 14.3887 26.5398H14.2592C11.412 27.0086 8.60502 27.7362 5.89581 28.76C2.31519 30.1175 0 33.4307 0 37.2069V42.5044L0.681636 42.9243C5.06753 45.6478 12.2547 48.892 21.57 48.892C26.7123 48.892 34.512 47.8595 42.4613 42.9243L43.14 42.5044V37.2068C43.14 33.5169 40.8967 30.1721 37.5577 28.8779Z" fill="black"/>
</svg>
